<svg xmlns="http://www.w3.org/2000/svg" xmlns:xlink="http://www.w3.org/1999/xlink" viewBox="0 0 674.46 959.11"><defs><clipPath id="clip-path"><polygon points="488.51 381.3 448.06 329.72 676.68 306.85 799.2 541.34 794.51 903.02 563.78 962.74 321.17 968.62 186.85 923.28 180.13 686.55 204.48 454.01 279.19 368.38 311.69 348.87 369.02 421.44 489.67 574.92 510.94 603.12 575.19 610.52 556.24 446.87 488.51 381.3" fill="none"/></clipPath></defs><title>logox</title><g id="Layer_2" data-name="Layer 2"><g id="Layer_1-2" data-name="Layer 1"><g clip-path="url(#clip-path)"><path d="M470.69,952C322,952,256.87,902.74,256.87,902.74V742.37H269.4c13.36,76,56,197.12,201.29,197.12,107.75,0,130.3-131.13,30.07-203L368,651.33c-99.39-63.48-159.53-142.83-92.71-238,0,0,40.93-64.32,165.38-64.32,132,0,202.13,40.09,202.13,40.09V529.38H630.22c-11.69-63.47-53.45-167.88-189.6-167.88-90.21,0-141.16,113.59-24.22,189.6L550,638.8c111.09,73.5,143.66,164.55,90.21,244.73C640.25,883.53,602.66,952,470.69,952Z" fill="none"/><path d="M463.05,954.57c11.69-.09-6.28-1.41,7.64-.41A15.56,15.56,0,0,1,463.05,954.57Z" fill="#202020"/><path d="M509.5,951.72c9.28-1.93,19.19-4.11,29.45-6.61a279.09,279.09,0,0,0,31.2-9.46,177.69,177.69,0,0,0,30-14.42,137.24,137.24,0,0,0,13.35-9.39A107.37,107.37,0,0,0,625,901.12c1.65-1.74,1.8-1.15,2.46-1.12.33,0,.78-.12,1.6-.78a25.29,25.29,0,0,0,3.75-4c1.31-1.74,2.63-3.55,3.92-5.46a68.1,68.1,0,0,0,3.73-6.12v0a206.12,206.12,0,0,0,14.38-28.52,147.68,147.68,0,0,0,9.29-33.76,137.82,137.82,0,0,0,.4-35.89,152.79,152.79,0,0,0-8-33.5l1.64,2.56a73.08,73.08,0,0,0-6.65-13.64c-1.41-2.24-2.8-4.5-4.14-6.73s-2.79-4.35-4-6.51c.29-.28,2.07,2.44,1.37.19-1.07-.82-3.66-4.46-6.29-8.33-1.32-1.92-2.8-3.8-4.05-5.45a26.14,26.14,0,0,0-3.21-3.66c-2-3.34-1.06-3.61-3.78-7.92l-4.7-3.45c-6.25-5-12.7-11.83-19.86-19.09l-5.52-5.45c-1.89-1.82-3.87-3.57-5.86-5.35l-3-2.65L585.34,664c-2.12-1.64-4.25-3.26-6.46-4.76,1,.38,2.77,1.55,1.66.23L569.7,652,564,648.13c-1.92-1.29-3.83-2.62-5.82-3.87-7.87-5.15-16.13-10.28-24.43-15.6-16.61-10.61-33.55-21.63-49.7-31.8,1.53.44,3.18.49,1.61-1.19-2.35.16-12.41-6-21.1-11.39-3.05-3.74-15.39-8.51-25-15.76l1,.29c-8.25-3.59-10.52-7.95-17.53-10.37l-4.07-4c-2.19-.2-4.73-2.19-7.55-4.57-1.43-1.16-2.85-2.5-4.37-3.71a36.07,36.07,0,0,0-4.69-3.28l-.07.48c-5.85-3.84-8-7-13-11l-.29-.59a112.73,112.73,0,0,1-12.42-12.45c-2.66-3-4-4.65-4.56-4-1.2-2.46,1.26.3,3.53,2.67s4.5,4.26,2.44.57A120,120,0,0,1,356.7,488a93.52,93.52,0,0,1-9.39-36.52,84.17,84.17,0,0,1,6.84-37.22,86.84,86.84,0,0,1,9.43-16.49,90.84,90.84,0,0,1,12.75-14c2.36-1.65,4.33-2.91,5.85-3.84a13.36,13.36,0,0,1,3.34-1.54,80.73,80.73,0,0,1,9.89-6.36c4-2.28,8.23-4.13,10.22-5.31-1.55.61,3.3-.38,5.84-1a56.42,56.42,0,0,0,9.17-2.87A28,28,0,0,1,430.77,361a14.66,14.66,0,0,0-3.88,1.14c-.62.35-.59.63.1.83A58.51,58.51,0,0,1,441.21,361h11.7l3.82.14c-1.58.16-4,.14-3.65.67a71.81,71.81,0,0,1,7.91,0q1.9.1,3.75.27c1.23.13,2.43.34,3.62.52,2.39.37,4.74.76,7.09,1.07s4.67.76,7.08.94l-3.7.27c7.48,1.94,8.68,1.63,9.65,1.35s1.71-.77,8.16,1.12c-3.2-.47-2.19.15-2.84.38,1.56.18,3.25.32,5,.69s3.55.79,5.43,1.25a111.94,111.94,0,0,1,11.52,3.55c2,.61,3.82,1.47,5.7,2.23s3.71,1.52,5.48,2.29l5.05,2.41c1.6.77,3.17,1.42,4.55,2.17-.72-.26-.67.06-.67.06,12.12,6.36,23.46,15.11,34.88,24.87a3.94,3.94,0,0,1,1.26,1.93c.07.39-.07.61,0,1a5,5,0,0,0,1.26,2.1c.45.56,1.06,1.24,1.88,2.1s1.81,1.91,3,3.22c.49-.81,4.8,3.54,8.11,7.45.84,1,1.68,1.86,2.36,2.65a22,22,0,0,0,1.68,1.84c.85.78,1.1.57.25-1.47,1.77,2.54,3.85,5.43,5.79,8.6,1,1.58,2,3.13,3,4.79l2.86,4.89c1,1.6,1.78,3.24,2.65,4.78s1.71,3,2.42,4.43c1.45,2.83,2.84,5.23,3.84,7-1.51-2.36-1.37-.74-1.43.3,0,.52-.11.9-.46.58a5,5,0,0,1-.75-1.08c-.36-.57-.83-1.38-1.42-2.5.87,2.43,1.59,4.92,2.33,7.38-.58-.35-1.36-2.15-2-3.55s-1.12-2.34-1-1.06l2.41,4.73c.49,1,1,2,1.56,3.06l1.55,3.29c.51,1.11,1,2.22,1.52,3.28s.88,2.13,1.29,3.1a49.9,49.9,0,0,1,1.74,4.69c1,2.11,2.18,4.15,3.29,6.29s2.23,4.34,3.34,6.76a102,102,0,0,1,6.31,18c-2.41-6.85-1,4.45-2.49-.24l3.85,9.38.82,1.88.2.43.05.11.15,0,.32,0,1.22-.23c1.6-.29,3.05-.59,4.36-.88,1.67,0,1.23.19,1.56.45a1.53,1.53,0,0,0,1.19.6,17.75,17.75,0,0,0-.08-2.55c-.49-.08-.79-2.72-1.19-4.34a8.32,8.32,0,0,0,0-1v-2.3c0-2.11,0-4.76,0-7.43.08-5.32.37-10.68,1.29-11.79.71-2.24.38,8.29,1,2.65,0-9.4-.64-9.81-.67-19.21l.24-.18c.27-6.21-.78-18.29-1.78-11.54-.06,4.32,1.09-1.64.56,4.75-1.06-4.37-1.35-15.29-1.38-24.69.3,3.2.79,2.82,1.3,4.11-1.43-12.63-1.89-26-2.49-40.12-.86-.22,1.59,5.26,1.13,7.33.3-4.52.34-9.11.26-13.69,0-2.29-.1-4.58-.18-6.86,0-1.14-.09-2.27-.13-3.4l0-.85,0-.68-.07-1c0-.66-.08-1.32-.13-2l0-.47a1.93,1.93,0,0,0,0-.24l-.23-.11-.9-.41c-.59-.28-1.17-.54-1.74-.79l-.84-.38-1.4-.66c-1.87-.84-3.69-1.71-5.44-2.59s-3.49-1.72-5.12-2.63c2.3.79.74,1.64.68,1.35-2-.86-3.38-1.54-4.52-2.09s-1.94-1-2.68-1.47a18.06,18.06,0,0,0-5.33-2.24c-.13-.44-1.82-1-4.16-1.58l-8.12-2.08c-3-.38-1.33-.8,3.5.63-2-.46-5.39-1.32-9.68-2.47-2.13-.61-4.52-1.16-7.06-1.78l-8-2-17-3.94c-5.64-1.18-11-2.42-15.51-3.6.26.54-11.59-.12-15.77-.88l1.82-.85a29,29,0,0,0-3.8-.93c-1.52-.23-3.2-.45-4.78-.66-3.17-.43-5.92-.84-6.22-1.37-4.63.12,4.15.89,12.53,1.75,8.34,1.06,16.31,2,10.1,1.52-1.49-.73-5.82-1-9.41-1.21-1.78-.13-3.4-.17-4.39-.26s-1.34-.27-.62-.57c-8.57-1.06-16.95-1-25-2.7,2.36.4,7.13-.92.18-1.5-12.23-.92-3.52.19-13.45-.29l-6.25.12c-.49,1.08-10.92-.77-6.44.73-.73-.49-5.17-.63-9.27-.8s-7.85-.21-7.2-1.13l1.74-1.42c-5.31,0-8.72,1.37-12.88,1.94-.69-.15-2.08-.47-1.82-.7-.21.55-1.11.8-2.43.89s-3.05.11-5,.08-4-.06-6,0a20.61,20.61,0,0,0-5.41.88,165.91,165.91,0,0,0-18.7.91c-3.1.32-6,.57-8.52.76a31.54,31.54,0,0,1-5.85.18l-3.06.73-3,.82c-2,.55-4,1.06-6,1.58-4,1.15-8.22,2.11-12.89,3.16,1.8-.69,4.31-1.42,4.72-2-6,.92-7.32,1.78-12.46,3.75.27-.17-.34-.11-1.51.09s-2.9.56-4.85,1c-3.94.87-8.77,2.27-12.06,3.14-7.48,3.89-4.33,3.86-4.81,4.86a25.61,25.61,0,0,0-6.67,2.3,82.22,82.22,0,0,0-7.57,4.39c-2.6,1.6-5.13,3.39-7.62,4.92a49,49,0,0,1-7,3.93l2.28-1.95c.9-.73,1.84-1.51,2.52-2.13,1.35-1.23,1.68-1.84-1.39-.18-3.83,1.14-6.77,3.76-10,6.85a138.26,138.26,0,0,1-11.28,10.68l3.4-.73c-2.34,1.41-5.33,4.72-7.53,7.5s-3.73,4.94-4.12,3.91c-.23.44-.53.92-.85,1.43l-1.12,1.75-2.63,3.88c-1.65,2.47-2.8,4.43-1.66,4.33-1.43,2.05-2.87,4.26-4.33,6.56-.36.58-.73,1.16-1.09,1.75l-1,1.83-2,3.74c-1.39,2.49-2.47,5.14-3.61,7.76-.54,1.32-1.17,2.6-1.65,3.93s-.94,2.65-1.41,3.95c-3.76,10.46-5.74,20.27-8,26.19-.05.71-.07,1.69-.1,2.74s-.08,2.15-.12,3.13c-.05,1.95,0,3.37.52,2.65a13.4,13.4,0,0,0,.44-5.25c-.13-1.28-.37-2.22.12-3.05a6.54,6.54,0,0,0,0,1.56,5.08,5.08,0,0,0,.15,1,1.86,1.86,0,0,0,.41.86c-.4,3-.76,5.76-.93,7s-.66,1-1.42-1.93a41.23,41.23,0,0,0,.11,8.33,60,60,0,0,0,1.52,6,133.63,133.63,0,0,1,4.51,16.52c-.94-.56-.82.78.76,5.64.31.74.69,1.47,1.08,2.19l1.14,2.15c.79,1.43,1.47,2.88,2.32,4.27,2.17,5.17,2.4,6.84,2.06,7.26s-1.49-.32-2,.07c.73,1.35,1.51,2.77,2.29,4.19s1.49,2.84,2.34,4.09a30.34,30.34,0,0,0,4.22,5.58l2.79,7.11c-1-2.61-.17-1.64,1.16.24s3.39,4.54,4.36,5.63l-2-2.16a18.83,18.83,0,0,0,2.74,4.21c1.52,1.84,3.29,3.87,4.48,5.23.07-1.16-4.29-7-6.34-10.37,1.16,1.1,2.38,2.68,3.78,4.29s2.93,3.27,4.47,4.68c-.45-.07-.32.41.16,1.24a28.68,28.68,0,0,0,2.44,3.23c1.05,1.27,2.25,2.67,3.39,4s2.3,2.47,3.11,3.39c3.64,4.31,5.17,3.81,6.3,5-.35.55,6.43,6.54,2.7,4.09-1.51-1.22-2.68-3.54-5.33-5.38,1.15,1.47,1.46,2.33,2.23,3.43a14.26,14.26,0,0,0,1.68,1.94,31.3,31.3,0,0,0,3.4,2.89c4.7,3.51.52-2.73,8.14,5.25-2.4-1.67-3.07-1.72-5-2.91,2.35,2.53,4.84,4.94,7.3,7.38l1-.55c.87,1.13.08.57.47,1.11,1.51.6,4.66,3,7.68,5.4s6.14,4.55,7.44,4.77c1.05.79,2.08,1.65,3.11,2.53s2.08,1.76,3.1,2.66c2.06,1.8,4,3.66,6.06,5.14l-.84-.48a71.39,71.39,0,0,0,8.06,6,87,87,0,0,0,8.16,4.59l-.36,0c1.35,1,3.74,2.48,6.24,4a72,72,0,0,0,7.13,3.85c6.75,5.32.15,5.09,8.86,9,7.32,4.65,12.55,5.63,10,3.14,12.71,9,28.6,17.09,39.81,26.34,2.14.83,1.1-.17,5.14,2.1,19,12.73,41.42,25,55.53,36.66-5.85-3.19-1,.68-1.23,1.29,5.16,2.13,4.95,4.41,7.57,4.05.1-1.13.84-1.23-4.36-5.05l4.65,2.77c.81.5,1.63,1,2.47,1.5s1.66,1,2.53,1.63c1.71,1.24,3.53,2.51,5.17,3.79s3.32,2.55,4.85,3.89a95.6,95.6,0,0,1,13.77,13.72c-2.43-3.13-.06-1.2,2.32.84-.94.18.35,2.22,2.53,4.91s5.17,6.17,7.77,9.15l1.47.31c.79,1.56,1.51,3.16,2.22,4.76a34.4,34.4,0,0,0,3,2.57c1.1,1,2.44,2.63,4.08,6.27a4.26,4.26,0,0,0,.28,2.53,112.33,112.33,0,0,1,7.63,12A58.14,58.14,0,0,1,566,809.68l.45,3.73.31,3.74c1.16,3.63,3.39,9.82,2.26,3.09a122.47,122.47,0,0,1,2.12,19q.15,7.54-.85,11.17a83.36,83.36,0,0,1-.76,22c-.29,2-.75,3.94-1.18,6s-1,4-1.67,6-1.36,4-2.1,6-1.65,4-2.63,5.92a85.59,85.59,0,0,1-14.87,21.56,87.06,87.06,0,0,1-19.78,15.6l.43-1.11c-1.9,1-3.09,1.58-3.85,2.08a5.28,5.28,0,0,0-1.37,1.21c-.53.69-.8,1.19-3.61,2.27,1.1-.93-.52-.53-1.71-.46s-1.92,0,.9-1.78c-2.8,1.06-5.06,2-7,2.79s-3.59,1.56-5.11,2.29a51.37,51.37,0,0,1-9.42,3.71c-.95,1.21,6-2,4.81-.51a17.21,17.21,0,0,1-3.12.8c-1.63.37-3.71.69-5.8,1s-4.19.6-5.88,1a8.45,8.45,0,0,0-3.41,1c-3.05-.28-.79-1.57.73-2.32-2.37.51-4.77.87-7.18,1.24-2.23-.33-2.07-.77-.77-1.18s3.76-1,6.18-1.6c1.2-.32,2.4-.65,3.44-1a18,18,0,0,0,2.51-1c1.18-.61,1.16-1.09-1.13-1.3-1,.2-2.12.35-3.19.49l-3.2.42c-1.56-.29-1.28-.61-.25-.91s2.8-.69,4.27-1,2.6-.62,2.4-.7a7.09,7.09,0,0,0-1.46,0c-.91,0-2.29.12-4.27.25-1.7.33-3.35.65-4.77,1.06a22.75,22.75,0,0,0-3.4,1.1c-1.58.73-1.53,1.41,1.63,1.67-1.83.08-3.33.23-4.54.33a25.58,25.58,0,0,0-2.94.37,15.54,15.54,0,0,0-3.38,1.07,13.08,13.08,0,0,1-3.62,1,30.77,30.77,0,0,1-3.24.23c-1.33,0-2.94-.13-4.92-.3-2.12-.6,1-.4,4.37-.23s6.8,0,5.31-.65a47.6,47.6,0,0,0-5.54-.6c-1.84-.14-3.68-.19-5.49-.2s-3.61,0-5.37-.06l-1.3,0-1.28-.14c-.85-.11-1.68-.24-2.49-.4,7.23,1.54.9,2.16-3.92,1.76-4-.89-2.62-1-1.69-1.21s1.41-.23-4.22-1.2c-2,.46-12.54-1-3.64,1.37-2.23.52-5.19-.17-8.36-1s-6.52-2.13-9.78-2.22c-1.65-1.13,1.46-1.11,3.43-1.31s2.82-.6-3.16-2.51c.39.41-.4.55-1.67.39s-3.06-.48-4.72-.75c-3.32-.54-6.16-.85-3.25,1.11-2.34-.95-3.53-1.72-3.66-2.23s.72-.58,2.59-.41c-.41-.19-.83-.36-1.27-.53s-.86-.37-1.31-.54c-.9-.35-1.83-.67-2.78-1-1.9-.6-3.86-1.12-5.67-1.64a19.52,19.52,0,0,1-2.52-.88,21.18,21.18,0,0,1-2.11-1,4.44,4.44,0,0,1-2.34-2.21l-2.8.14c-.45-.34-1-.67-1.52-1.08l-1.76-1.32c-1.24-.94-2.62-2-4-3.17-.69-.38-1.49-.8-2.37-1.23s-1.79-1-2.75-1.49c-1.92-1-4-2.15-5.8-3.19a23.36,23.36,0,0,1-2.49-1.58c-.74-.52-1.38-1-1.89-1.43-1-.87-1.48-1.52-1.08-1.84-1.9-.8-12.87-10-9.47-5.43a46.55,46.55,0,0,0,4.1,3.62,33.65,33.65,0,0,0,3.06,2,13.26,13.26,0,0,1,4.54,4.25,30.85,30.85,0,0,0-7.46-5.9c-2.59-1.7-5.24-3.13-7.44-4.59l-.16-1.12c-1.25-.91-3.16-2.61-5-4.15-.93-.78-1.84-1.51-2.64-2.1a10.28,10.28,0,0,0-1.94-1.28c2,1.37,1.47.12-.13-1.77L328,893.32c-1.16-1.07-2-1.92-2.7-2.63A16.69,16.69,0,0,1,324,889a3.15,3.15,0,0,1-.65-1.79,3.34,3.34,0,0,0-.57-1.76,14.87,14.87,0,0,0-1.25-1.7c-.59-.71-1.36-1.6-2.34-2.76,1.05,1.12,2.22,2.14,3.35,3.2l3.39,3.12a29.82,29.82,0,0,1-2.77-3.6c-.58-.82-1.27-1.71-2-2.67s-1.57-2-2.55-3.09c-1.11-.53-2.59-1.42-4-2.31s-2.74-1.85-3.66-2.37c-2.22-2.64-2.43-3.44-2.69-4.18s-.62-1.39-2.92-3.9c1.94,2.24,4.09,4.33,6.15,6.46.53.43,0-1-1.3-3.51-.68-1.22-1.51-2.72-2.44-4.42s-2.07-3.51-3.32-5.38c-3.33-4.68-9.31-11.66-5.07-3.5-2.47-3.87-4.87-9.82-2.47-7-5.28-8.83-.38,1.76-5.22-5.75-.49-1.8-1.84-5.32-3.2-9.23s-2.77-8.23-3.55-11.57c.88,1.29,1.71,2.59,2.63,3.86l2.73,3.78c-.84-1.85-1.71-3.68-2.51-5.53,2.26,3.29,2.12,2.26,1.78.86s-.76-3.22.78-1.5c-1.36-3.87-3.84-8.23-5.58-11.81,1,6-.93,3.24-3.3-.66l-1.79-3c-.56-1-1.11-1.91-1.6-2.66-1-1.49-1.75-2.23-2-1.22a32,32,0,0,1-2.35-8.66,24.2,24.2,0,0,1,0-4.92c.21-2.88-.08-5.64-4-13.56.18,2.9-3.58-4.59-.23,5.39a30.19,30.19,0,0,0-3.16-8.42,19.86,19.86,0,0,1-1.4-3.4c-.23-.75-.47-1.64-.72-2.71s-.44-2.36-.66-3.88c2.86,8.63.07-9.93,4.2,2.49-.95-.68,1.18,7.18,1.87,9.07-.21-4.33,2.33.29-.14-9.91L267,755.3a26.31,26.31,0,0,0-1-3.2c-.26-.36-.48-.4-.73-.19a.54.54,0,0,0-.32.27s0,.05,0,.11v.26a4.55,4.55,0,0,0,.05.61c.11.87.34,1.93.55,2.86.41,1.86.71,3.19-.33,1.3-.37-1.56-.67-3-.93-4.24l-.14-.74,0-.28c0-.21,0-.4-.06-.59,0-.76,0-1.45-.09-2l0-.42a.94.94,0,0,0-.34,0,2.76,2.76,0,0,0-.74.11,3.52,3.52,0,0,0-1.62,1,3,3,0,0,1,1.34.12c.39,0,.14.59,0,.89a3.14,3.14,0,0,1-1.16,1.36.79.79,0,0,0-.15-.12l-.08,0s-.09,0-.14.05a2.23,2.23,0,0,0-.45.26,4.13,4.13,0,0,1,.5-.84,1.72,1.72,0,0,0-.47-.1h-.19l1.42,0a42.64,42.64,0,0,1,4.63.3c.46.65,1.22,1.24,1.08,1.23s-.13-.06-.2.07l-.21.84-.42,1.69-.83,3.37a11.11,11.11,0,0,1-.48-3.12c0-.69-.06-1.44-.07-2.23v-1a5.69,5.69,0,0,0-.07-2,10.05,10.05,0,0,1-2.41-.36c-.47-.18-.54-.41-.34-.71h1.68a14.69,14.69,0,0,0,.47,3.23,1.63,1.63,0,0,1,.07.35l.05,1.09c0,.74.06,1.5.07,2.29,0,1.6,0,3.35-.17,5.41-.2-2-.26-4.64-.47-6.58-.08,3.35-3.16,6.69-1.35,20,.7,6.89.83,1.82,1.7,2,.26,15,1.15,19.5,1.28,29.18-1.7-2-.16,17.08-1.9,6.41,1-4.92.9-26.63-.72-32-2,5.47.28-11.79-1.76-15-.05,12-2,11.47-3.33,13.41a61.93,61.93,0,0,0,.66,8.57c1.23,1.41,1.21-3,2.47-3.2-.34,13.43.35,26.38,1.54,33.78-.61,4.49-1.83,3.07-1.95-2.25.37,16,.2,33.08-.17,48.25,2-9.8.47,16.94,2.13,10.25.45-8.14,1.87-15.13,2.76-10.65-.13,5.09-.87-.16-1.3,2,1.09,6.48-1.75,10.07,0,16.42-.64-14.59-2.43-2.84-4-5.52.88,10.53-1.12-.45-1.12,10,.22,2.62.43,5.4.62,8.27l.07,1.08.07.91.14,1.54.13,1.51c-.14.59.5.78.93,1.05.92.53,1.82,1,2.72,1.49l1.88,1,2,1,3.91,2,3.91,1.88a88.87,88.87,0,0,0,10.5,5.8c1.94.94,4,1.76,6.05,2.64s4.12,1.75,6.24,2.49c4.25,1.47,8.42,3,12.36,4.21s7.61,2.27,10.69,3.27a14.49,14.49,0,0,1,2.94,1.69,3.52,3.52,0,0,1,.94,1.18c.44.72,1,1.41,4.48,2.56,8.35,2.33-5.67-3.59,6.46.69h-1.28c1,.14,2.82.79,5.2,1.36s5.21,1.38,8.06,2.08,5.72,1.35,8.15,1.66,4.42.25,5.48-.19l-4.28,1.13a36.94,36.94,0,0,0,6.58.79c0,.63,2.62,1.72-1.31,1.37a56.49,56.49,0,0,0,12.14,2.72c4.26.41,8.63.66,12.9,1.26l-5.33-1.93c7.38.61,13.44,1.73,19.52,2.37l9.18,1.14,4.84.53c1.66.17,3.36.33,5.15.36l-.51,1.08,8.54-.13c-2.15,1,5.62,2.13,10.17,1.51l-11.15.66-5.59.33c-1.87.1-3.74.27-5.6.26-3.05-.65-1.34-.8.66-1s4.28-.54,2.4-1.18c-3.19-1.19-16.38-2.36-18.64-1.5a47.79,47.79,0,0,0,9.26.45c1.52,1.72-6.15.85-10.07,1.47,2.65.22,6.39,1.08,7,.66a79.87,79.87,0,0,1-8.36-.16c-1.53-.12-3.19-.18-5-.44l-5.92-.83c5.95.28-3.05-1.41-.77-1.52-.44.62-2.74.73-6.27.43-1.76-.15-3.83-.4-6.12-.73s-4.79-.93-7.43-1.52c-3.65-1.52-8.69-2.16-14.33-3-5.61-1-11.89-1.8-17.93-3.58A114.74,114.74,0,0,1,354.88,941c-7.46-2.48-8.5-2-16-4.47-3.93.06-6.93.77-17-1.41l-.24-1.12a82.27,82.27,0,0,0-9.52-1.9,45.83,45.83,0,0,1-4.49-1,64.26,64.26,0,0,1-6.62-2.37c-2.37-1-4.75-1.89-7.11-2.88l-7-3.11c-1.16-.52-2.33-1-3.47-1.55l-3.4-1.65-3.37-1.64-1.66-.8-1.63-.87c-2.16-1.17-4.3-2.25-6.36-3.42s-4.07-2.3-6-3.53l-1.61-1-1.76-1.13-3.32-2.34c-.77-.27-.49-1.08-.55-1.7l0-1.94c0-1.29,0-2.56,0-3.79a5.59,5.59,0,0,1,1-.68c-2.17-8.57-.8-28.57-1.77-40.1,1-19.63-1-42.63.78-52.7-.23-10.63-.46-20.85-.68-31l-.27-15.19c0-2.94-.08-5.88-.12-8.84q0-5.33-.09-10.71l16-.08h4.2c.19-.06.15.16.19.28l.07.41.32,1.66c.41,2.21.83,4.45,1.25,6.69l.32,1.69.33,1.63c.16.8.32,1.61.49,2.41.33,1.61.63,3.23,1,4.86.71,3.25,1.4,6.55,2.22,9.88-.95-1.81-1.92-3.63-2.82-5.47,2.49,6,.13,4.23,1.83,10.27-.61-7.26,3.6,8,5.87,11.94,3.29,15.5,11.87,34.08,19.11,45.9l-.67.93c1,1.46,2,3,2.92,4.56s2,3.13,3,4.77c1.87,3.32,4,6.64,5.95,10.18,1,1.74,2.13,3.46,3.2,5.24.54.89,1.08,1.78,1.63,2.67s1.16,1.75,1.74,2.64c1.18,1.75,2.38,3.52,3.58,5.31l3.93,5.16a36.61,36.61,0,0,0,1.91,3.59,34.86,34.86,0,0,0,3.93,5.06l1.37,1.1,1.33,1c.87.66,1.68,1.29,2.47,1.92s1.56,1.26,2.32,1.9l1.14,1,1.21.95,5.34,4.24c1,.83,2.11,1.56,3.31,2.42l3.9,2.73c4,3.05,9.21,7,14.75,10.55l2.05,1.38c.69.46,1.41.84,2.1,1.27l4.12,2.46c2.63,1.68,5.28,3,7.51,4.22,4.35,1.88,8.92,3.24,13.37,4.86,2.25.75,4.56,1.34,6.83,2s4.55,1.39,6.89,1.88l7,1.69c1.15.31,2.34.49,3.51.71l3.54.66,3.54.66,1.76.34,1.79.24,7.17.94c1.2.14,2.39.36,3.6.45l3.62.27,7.26.56c2.43.14,4.87.13,7.31.2s4.9.13,7.31.1a97.11,97.11,0,0,0,28-4.37c1,.15,2,.28,3,.37a94.78,94.78,0,0,0,24.76-13.92,79,79,0,0,0,19.12-21.83,82.5,82.5,0,0,0,10-26.5,85.51,85.51,0,0,0,1-25.57l2.2,2.93a52.9,52.9,0,0,0-1.91-14.71,23.25,23.25,0,0,0-1.7-4.48c-.53-.9-.94-1.13-1.14-.43a78.09,78.09,0,0,0-5.07-16.1c-2.21-5.31-4.49-10.08-5.27-13.27a51.94,51.94,0,0,0-3.1-5.63c-1-1.49-1.91-2.71-2.81-3.87l-2.85-3.44c-1-1.19-2.13-2.54-3.44-4.21a122.31,122.31,0,0,0-15.49-18.58c-1.26-1.19-2.5-2.39-3.8-3.58s-2.67-2.36-4.12-3.57-3-2.47-4.67-3.74-3.49-2.67-5.4-4l1.83,1.44,1.86,1.53c1.95,1,2.65.41-1.11-2.7-.76-.47-1.64-1.07-2.61-1.75L497.14,742l-1.77-1.12c-2.4-1.53-4.93-3.17-7.09-4.5-4.33-2.66-7.2-4.11-4.7-1.06-17.47-12.88-43.2-26.35-59.91-39.32,1.15,1.53-3.4-1.24-5.54-2.08-16-10.24-32.12-22.18-45.51-29.43-2.37-1.92,4.67,1.65-1.81-2.59-4-2.26-.56.67-5.51-2.06a301.5,301.5,0,0,1-38.54-27c-12.08-9.85-23.28-20.23-33.59-30.29a217.9,217.9,0,0,1-25.91-29.13,175.55,175.55,0,0,1-10.86-16.65c-.88-1.41-1.58-2.94-2.38-4.41l-2.31-4.44-2.06-4.59-1-2.29-.51-1.15-.45-1.18a126.23,126.23,0,0,1-8.85-39.08l-.1-1.24c0-.42,0-.83,0-1.25l0-2.49c0-1.66,0-3.32,0-5s.2-3.29.31-4.94l.16-2.46a22.31,22.31,0,0,1,.23-2.45L240,475c.22-1.61.42-3.23.79-4.8s.67-3.16,1-4.73l.5-2.36.64-2.3.32.68c.35-2.1.83-4.28,1.39-6.51s1.44-4.39,2.25-6.62c.42-1.11.84-2.23,1.29-3.34l1.54-3.25c1-2.15,2-4.35,3.16-6.42,2.33-4.1,4.45-8.19,6.63-11.82,1-1.85,2-3.65,2.83-5.4a48,48,0,0,0,2.27-4.84c.64-.74,1.48-1.88,2.37-3.12l1.36-1.91c.3-.42.57-.79.84-1.12s.52-.68.77-1c2-2.45,3.54-3.91,2.91-2.45,3.93-5.78,10.9-12.38,19-18.43s17.34-11.7,25.4-17a31.83,31.83,0,0,0-4.09,2.57c8.72-4.32,16.9-8.27,25.43-11.77A149.77,149.77,0,0,1,366,350.5c-1.93.74-5.5,1.81-5.93,2.47a40.82,40.82,0,0,0,6.05-1.51l3.09-1,3-1a48.28,48.28,0,0,1,5.61-1.49,9.76,9.76,0,0,1,4.36.1c4.37-.85,2.91-1.75.22-1.18l4.09-.69c1.37-.22,2.75-.38,4.13-.58l4.13-.58,2.08-.29,2.08-.23,8.36-.93,8.42-.69,2.12-.18,2.12-.11,4.24-.23,4.25-.24c1.42-.07,2.84-.08,4.26-.12,2.84-.07,5.7-.17,8.54-.21l8.51,0A563.89,563.89,0,0,1,518,345.47c8,1.4,12.12,2.35,14.13,3.16s2,1.16,1.77,1.42c-.45.53-1.69.52,11.08,1.78,2,.79,1.66-.64,1.92-.1a48.84,48.84,0,0,1,11.87,3.34c1.65.64,3.2,1.23,4.77,1.68a19.61,19.61,0,0,0,4.91,1c-2.44-2.07,4.63.28,5-.52,19.08,5.81,22.45,8.26,37.69,12.26l-1.37.33c9.07,1.93,18.46,5.37,27.43,9.15.56.24,1.12.47,1.68.72l2.25,1c1.74.8,3.4,1.63,5.06,2.49,4.69.87,3.27,5.47,3.73,8.9.14,4.28.3,5.66.51,7.88s.47,4.08.78,6q.45,67.49.9,132.81l-26.19.1h-3.45c0-.08,0-.19-.07-.29l-.25-1.22-1-4.88-1-4.89-.5-2.47-.53-2.35q-2.25-10.05-5.3-19.85c-1-3.28-2.12-6.49-3.2-9.72s-2.31-6.41-3.63-9.54-2.62-6.25-4-9.35c-.68-1.56-1.45-3.06-2.17-4.59s-1.44-3-2.25-4.53l-2.34-4.48c-.79-1.49-1.66-2.93-2.49-4.4-1.61-2.95-3.47-5.74-5.22-8.6a179.64,179.64,0,0,0-11.82-16.18,170.49,170.49,0,0,0-13.5-14.67A162.94,162.94,0,0,0,548,404.11a156.89,156.89,0,0,0-61.22-27.4,222.07,222.07,0,0,0-33.83-4.4l-8.6-.2c-1.42,0-2.9-.1-4.26-.07s-2.7,0-4,.11a92.06,92.06,0,0,0-15.91,2.21,83.06,83.06,0,0,0-29,12.78,80.45,80.45,0,0,0-12,10.33A78.17,78.17,0,0,0,369.47,410a76.14,76.14,0,0,0-6.77,14.31,77,77,0,0,0-3.59,15.49,80.77,80.77,0,0,0,2.82,32.09,78.12,78.12,0,0,0,3.47,12.22,64.79,64.79,0,0,0,3.87,8.57c2.91,5.23,6.45,10.51,14.45,19.25-.89-.49-1.87-1.61-1.09-.19,1-.09,3.76,3.05,6.82,6.11,1.5,1.55,3.13,3,4.48,4.23a9.3,9.3,0,0,0,3.26,2,174,174,0,0,0,19.91,15.77l5.29,3.53,5.5,3.6,11,7.16L484,583.56c-5-3.08-8.23-3.58-2.32.17l6.7,3.14.75,1c4.13,2.42,8.94,4.61,5.1,1.46q29.63,18.81,58.63,38.1l3.63,2.42,3.68,2.54c2.44,1.7,4.92,3.35,7.32,5.1l7.18,5.29,1.8,1.32,1.75,1.38,3.51,2.76c2.34,1.83,4.68,3.66,6.95,5.6s4.57,3.81,6.81,5.76l6.66,6c2.22,2,4.32,4.11,6.48,6.16a291.67,291.67,0,0,1,24.15,26.49,226.67,226.67,0,0,1,20.17,29.88,179.38,179.38,0,0,1,14.57,33.27,150.55,150.55,0,0,1,6.87,36,157.06,157.06,0,0,1-3.81,39.82A154.49,154.49,0,0,1,656,875.8l-2,3.32-1,1.65L652,882.36l-4.18,6.19.41-.66c-.29.49-.41.66-.6,1l-.52.77c-.34.52-.67,1-1,1.46-.67.94-1.34,1.85-2,2.72-1.37,1.76-2.79,3.43-4.24,5a127.26,127.26,0,0,1-9.06,9.08,154.93,154.93,0,0,1-19.85,15.13,184.78,184.78,0,0,1-21.4,11.8c-3.65,1.76-7.38,3.28-11.1,4.85-3.77,1.41-7.51,2.91-11.34,4.14A271.92,271.92,0,0,1,520,955a384.3,384.3,0,0,1-49.35,4.08,44.89,44.89,0,0,1,8.43-2.38c3-.59,7-1.42,12-2.21l4-.6,4.37-.71C502.49,952.74,505.85,952.33,509.5,951.72Z" fill="#202020"/><path d="M449,954.44c-1.24-.44-3.89-.8-5.42-1.19s-1.92-.81,1.36-1.25C445.67,952.78,449.86,953.73,449,954.44Z" fill="#202020"/><path d="M262.43,885.72c-.24-.28.34-3.09.47-3.79.06,2.69.76,5.2.33,7.34C263.16,886.55,262.78,887,262.43,885.72Z" fill="#202020"/><path d="M262.92,830.09c.74.83,1.31,12.74,1.4,19.77Z" fill="#202020"/><path d="M265.93,778.24c.62-4.48,1-3.24.94,2.79C266.48,781.47,266.28,779.48,265.93,778.24Z" fill="#202020"/><path d="M264.27,774.56a36.55,36.55,0,0,1,.83-8.55C264.48,766.18,265.49,776,264.27,774.56Z" fill="#202020"/><path d="M278.12,811.15c.53,1.29,1.48,3.29,2.32,5.31a21.46,21.46,0,0,1,1.82,5.37c-.29-1.46-1.89-4.48-3-7S277.23,810.34,278.12,811.15Z" fill="#202020"/><path d="M303.08,859.09a27,27,0,0,0,2.51,3.76c1.51,2.87-.81.34-2.39-1.91Z" fill="#202020"/><path d="M299.1,396.5c-1.35,1.21-2.63,2.5-3.93,3.76l.14-1.07C296.58,398.3,297.8,397.35,299.1,396.5Z" fill="#202020"/><path d="M637.3,444.3c.46,5.64-.69,3.93-.79,4.87C636.43,444.07,637.41,451.05,637.3,444.3Z" fill="#202020"/><polygon points="578.08 414.42 579.24 415.7 577.75 416.27 578.08 414.42" fill="#202020"/></g><path d="M526.39,387.31c-.31-11.28-1.29,6.06-.55-7.37A14.57,14.57,0,0,1,526.39,387.31Z" fill="#202020"/><path d="M549.31,402.15l.08.7.08.84.15,1.73c.08,1.16.17,2.32.26,3.5.16,2.36.29,4.75.4,7.19.23,4.86.35,9.86.41,15,.13,10.21,0,20.84-.21,31.57-.37,21.47-.92,43.37.12,63.28.12,4.65-2.08-1.23-1.67,9.29.59,8.7.93,18.52,1.07,29s.08,21.57-.13,33.79L540.6,598l-9-.15-9-.2-8.89-.25q-3.66-5-7.27-9.9t-7.18-9.88c-4.71-6.52-9.27-12.9-13.61-19l2.22,1.87c-5.19-7.3-13.47-14.69-19.11-22.31.26-.31,2.31,2,1.38,0-2.4-1.15-11-13.14-14.19-15.76-1.95-3.23-1-3.52-3.57-7.65l-4.41-3.44c-11.82-9.88-22.44-28.95-36.45-44.12.86.59,2.3,2,1.54.57-21.94-24.79-47.18-57.53-70.55-86.15,1.28.86,2.8,1.4,1.89-.63-2.24-.56-9.57-9.31-15.9-16.92-1.61-4.41-11.53-12.54-18.07-22.17l.86.57c-6.5-5.81-7.17-10.56-12.91-14.9l-2.46-5c-3.94-1.7-6.83-10.43-12-15.36l-.19.44c-4.52-4.95-5.86-8.33-10-13l-.18-.61c-9.4-11.1-13.71-18.44-14.75-17.18-2.14-4.8,9.15,10.71,5.68,3.27-15.41-18.29-30.65-37.17-45.76-56.21L196.1,195.26,174.64,167.9c-1.5-2.42-2.85-4.49-3.93-6.19a40.87,40.87,0,0,1-2.46-4.28c-.93-1-2.42-2.8-4.12-4.84,0,6,.07,13.32.56,16.77,0-.76-.21-.36-.44.62a23.33,23.33,0,0,0-.54,3.79c-.77,8.78,1.58,9.61.69,19.2-.36-3.83-.85-5.13-1.47-3.86,1.09,8.22.69,19.17.92,28.87-.24-1.51-.36-3.86-.87-3.5,1.22,10.62-.66,19.32.07,28.63l-.86-3.5c-1.41,14.94,1.85,4.44.94,17.36-.23-3.11-.61-2-1-2.58,1.46,12.08.54,31.57.89,43.62-.12-.72-.37-.53-.37-.53,0,13.11-.81,26.8-.35,41.22-.51,5.24-2.22-1.74-2.14,12.14,1.86-.49.33,23.55,2.58,15.39-.27,5.92-.66,13.57-.92,20.72s-.27,13.83,0,17.75c-.69-5.32-2.29,5.77-2.41-4.07l-1.14,7.45c-.77-1.11.27-7.68-.69-5.32,0,2.48.22,7.33.44,12.11s.46,9.48.39,11.69c.73,4.56,1.75,8.91,2.78,13.94s2.08,10.74,3,18c-1.48-6.81-1.6,4.16-2.44-.5q2.91,10.08,6.44,19.85c.46,2.39.17,2.71,0,3.3s-.34,1.44.63,4.85c.4-.46,1.32,2.48,2.2,4.48.09.91,1.36,5.8,2.66,10.71s2.67,9.82,2.15,11.13c0,2.28-2.9-7.43-1.8-2.08.72,2.14,1.33,3.76,1.89,5.09s1,2.42,1.56,3.48l1.63,3.44,2.29,4.91-.15.25a44.22,44.22,0,0,0,2.26,4.63,49,49,0,0,0,2.72,4.25c1.72,2.27,2.78,3.08,1.63.07-1.95-3.58-.25,1.92-2.66-3.67,1.45,1.58,3.43,4.61,5.86,8s5.21,7.23,8,10.58c-2.09-2.13-2.24-1.56-3.41-2.19a130.44,130.44,0,0,0,13.54,12.17A79.35,79.35,0,0,0,225.29,571c.29-.35-1-.51-2.45-.82s-3.26-.75-3.94-1.48a52.45,52.45,0,0,0,11.08,6,77,77,0,0,0,12.09,3.46l3,.53,1.5.26,1.51.2,3,.4,2.93.31,1.44.17.18,0,.26,0,.53,0,1,.07c1.39.09,2.75.2,4.08.31,2.67.22,5.26.38,7.55.66-3.42.08-.75-1.25-.68-1l1.95.07c.08.07.06.3.06.49l0,.57,0,1.09c0,.7-.05,1.36-.07,2-.05,1.24-.11,2.31-.17,3.26-.13,1.89-.27,3.3-.4,4.56a50.92,50.92,0,0,0-.18,8.82c-.09,0-.16.22-.2.55a44.12,44.12,0,0,0-6.46.14l-4.8.29-4.76.23c-1.46.27-1.82.18-1.21,0a23.06,23.06,0,0,1,5.51-.45l-4.83.25-5.78.27c-4.35.18-9.59.35-15.17.46-11.14.23-23.58.24-32.68-.3.35.49-11.19,1.8-15.37,1.74l1.64-1.14c-3.82-.69-14,.1-14.73-.88-8.94,1.39,34.43-1.18,22.34-.11-3.13-1-16.85,1.82-14.24.26-8.41,0-16.56,1.33-24.59.26,2.33.19,6.82-1.58,0-1.5-11.95.2-3.4.54-13.09.92l-6.08.47c-.41,1.12-10.68-.15-6.24,1.1-1.47-.92-17.38.56-16.14-1.28l1.65-1.46c-5.16.11-8.45,1.53-12.52,2.18-.67-.14-2-.43-1.77-.66-.83,2.22-12.34-.19-18.48,1.53-10.84-.77-27.54-.07-32.65-1.46-4.17.34-8.15.71-12.28.93-2.06.12-4.17.19-6.35.21l-4.46,0c-1.75,0-3.52-.06-5.32-.12,3-.21,7-.27,7.75-.75a78.61,78.61,0,0,0-8.1-.28c-2.21,0-4.29.2-7.08.36-.07-1.17-.15-2.69-.21-4.5.16,1,.49-4.71.87-11.27l.3-5,0-.63v-.16h.44l1.18,0,2.33.09,4.33.18,3.55.12c1.25-.16,2.34-.3,3.19-.45a15.87,15.87,0,0,0,1.65-.49,3,3,0,0,0,1.44-.84c.35-.52-.18-.95.17-1.36a13.22,13.22,0,0,0,1.48.2c.51,0,1,0,1.62,0a30.46,30.46,0,0,0,3.6-.4c1.26-.25,2.58-.55,3.93-.89s2.7-.83,4.08-1.25c5.49-1.82,10.82-4.28,15.26-5.29-1.14.76-3.67,2.08-5.15,3-.74.47-1.24.78-1.12.92s.81.06,2.38-.45a17,17,0,0,0,2.77-.53,19.32,19.32,0,0,0,2.6-1.08,34.94,34.94,0,0,0,5.09-3.22c3.4-2.6,7-5.7,11.79-9-1.13.12-2.23.26-3.34.34a19.56,19.56,0,0,0,3.9-2.73,53.56,53.56,0,0,0,3.85-3.83l1.63-1.75A17.18,17.18,0,0,1,88,551.17c.75-.7,1.26-.93,1.4-.41,1.06-1.64,3.37-4.14,5.07-6.33s2.8-4,1.7-4a76.87,76.87,0,0,0,8.46-12.93,135.47,135.47,0,0,0,6.72-15c3.87-10.13,6.56-19.72,9.46-25.26.37-2.8,2.05-9.65.86-8.41-1.88,4.38-.64,6.54-1.69,8.09.5-2.47.15-3.11,0-3.42l1.11-4a24.23,24.23,0,0,1,.85-2.72c.49-1.17.84-.87,1,2.12a37.78,37.78,0,0,0,1.35-14.3,77.53,77.53,0,0,1,.61-17.14c.65.85,1.07-.44,1.33-5.53-.18-3.24-.43-6.48-.68-9.71.74-11.22,1.9-6.34,3.18-6.56,0-6.05.11-13.47-.83-16.22l1.55-7.37c-1.1,5.38-.79-5-1.14-7.87l.34,2.87c.5-1.12.13-8.21,0-11.76-.38.42-.64,2.42-.83,4.82s-.3,5.22-.39,7.18c-.59-3.1-.48-8-1.15-12.12,1.23,1.36.82-9.94.92-14.79.23-5.56-1.13-6.26-1.1-7.89.64-.14.06-9.07,1-4.74.21,1.9-.59,4.33,0,7.47.45-3.67,1.56-3.25.71-10.84-.63-5.73-2.4,1.47-1.68-9.39.31,2.86.81,3.38,1.25,5.58l.58-10.17-1.11-.43c.27-1.38.38-.43.52-1.07-1.19-3-.44-15.53-1.77-17.83-.14-5.14.71-10.81.81-15.71l.1.94a84.28,84.28,0,0,0-.62-19l.24.27a109.56,109.56,0,0,0-.82-15.09c.79-8.28,4.18-2.81,2.74-11.94-.09-8.39-2.11-13.15-2.81-9.76.67-15.08-1.23-32.19.42-46.17-.46-2.16-.74-.8-1-5.26.32-22.15-1.58-46.74.52-64.37.5,6.42,1.11.42,1.75.28-1-5.29,1-6.37-.72-8.26-1,.54-1.5,0-1.87,6.24-.14-3-.25-6.31-.33-9.76,0-2.65-.09-5.38-.13-8l-2.26-3c-1.21-1.59-2.34-3.11-3.38-4.54-2.08-2.85-3.76-5.3-4.8-7,1.9,3.17-.09,1.13-2.11-1,1.85-.23-4-8.08-9-13.47l-1.42-.18L98.66,82a20.56,20.56,0,0,0-3-2,10.65,10.65,0,0,1-1.88-1.72,40.88,40.88,0,0,1-2.55-3.38,3.41,3.41,0,0,0-.62-2.25L86,68.53l-2.45-2.24L81,64.08c-1.71-1.49-3.39-3-5-4.6l-1.16-1.17-1.16-1.1C73,56.47,72.27,55.72,71.6,55l-1.93-2.73c-.64-.91-1.27-1.86-2-2.69-2.75-2-7.66-4.89-3.33-.85l-3.55-3.25-3.39-2.67c-1.08-.83-2.08-1.68-3.07-2.38l-2.82-1.92-2.47-1.73c-.78-.5-1.51-.93-2.17-1.37A28.81,28.81,0,0,1,43.67,33q-2.45-.57-5-1.24l-5.24-1a90.57,90.57,0,0,0-11.37-.75l-1.51,0-1.58,0H16.7l-2.82,0c-3.75-.07-7.61-.18-11.53-.34C-.47,30.68.55,26.86.3,24.6L.19,17Q.09,9.21,0,1.41l27.1-.15,18.08.07-.83.73c7.59.69,3.94-1.28,9.24-.77-2.46.7,5.79,1.51-.18,2.37,10.86.77,14-1.27,21.06-1.6,1.07-1-5.68.62-4.31-.6,1.21-.35,15,.75,16.72-.71,2.72.57.6,1.64-.87,2.23l6.64-.7c8.12,1.7-18.5,3-10,5.12l6.13-.22C94.63,8.7,72.61,8.9,88,9.42,94.63,8.7,100.33,6.59,94.39,6c13.87-.4,6.42-3.47,21.34-3.35,4.07.86-11.94.2-9.07,1.4,7,1.18,14.1-.65,20.34-.24-6.94-.55-1.07-2,3.42-2.28,7.59.68-4.92,1.37,5.81,1.52,1.78-.84,11.65-1.47,3.12-2,3.88-1.9,11.18.53,17-.95,3.51,1.34-11.06,3.1.75,3.77C155.25,2.47,171.68,2,165.44.1c4.63.37,5.12,1.38,1.74,2.18,3.31.39,7.32-.2,10.77-.56a28.77,28.77,0,0,1,4.64-.24c2.26.08,4,.36,4.69,1q2.06-.66,4.38-1.32l.17,0c1,1.62,2.27,3.5,3.62,5.55l1,1.58c.16.25.37.57.49.77l.28.51c.38.69.76,1.42,1.14,2.18,3.61,4.59,13.06,13.6,11.17,14.42,1.32,1.33,9.51,11.8,7.41,6.93-4.49-7-6.7-6.82-8.1-11.58,2.44,5.51,7.56,9.21,10.93,12.64l-.12,1.09c2,2,5.95,7.28,7.7,8.15-1.7-1.43-1.41-.22-.14,1.68L230,46.71c7.64,8.69.08,3.41,7.33,12l-6-6.13c1.32,1.34,2.84,5,6.47,9,2.14,1,5.59,3.25,7.36,4.15,4.3,4.67.82,3,5.55,7.18l-6.09-5.61c-1-.74,2,5.42,7.33,12,3.65,4,10.09,9.63,5.23,2.57,2.66,3.33,5.85,8.39,3.14,6.23,6.27,7.31.12-1.7,5.8,4.39,1.55,3.11,7.33,12,10.48,17.67l-6.79-5.68,3.57,4.53c-5.76-5,1.49,3.64-2.3,1.28a81,81,0,0,0,8.29,9.38c-5.26-10.52,10.61,8.05,10.27,4.06,10.27,12,1.91,11.06,14.84,21.8-1.22-2.47,4.92,2.57-1.75-4.82,5.9,7.83,5.88,3.85,12.35,13.48-6-6.16,4,8.59-4.77-.29,1.1.2-3.85-5.75-5.2-7.11,1.85,3.69-2.26.72,4,8.59,4,4.66,9.23,11.22,9.38,9.56.82-1-5.93-7.26-2.49-5,7.94,9.29,7.69,12.08,12.59,14.65-4.93-5.94-5.11-8.26-4.34-8.69l6,6.7-1.74-.84c8.45,11.64,3.83,2.38,12.31,13.44l2.76,6.14c-3.18-1.71-12.1-16.27-12.38-12.88,5.55,7.15,8.35,8.77,13.18,15.84-1.34-1.37-3-3.37-4.32-4.71,2,2.59,1.54,7,11,16,4.7,4.79,1.75.87,2.53.46,9.24,11.22,12.63,14.07,18.56,21.33-2.53-.46,10.16,13.06,2.37,6-2.18-4.35-15.32-20.76-19.79-23.79,1.71,5.4-6.88-9.12-10.42-10.3,7.22,9.17,5.31,10,5.46,12.24a56.94,56.94,0,0,0,5.68,6.09c1.81.31-.84-3,0-4,7.82,10.4,16.15,19.79,21.53,24.67,2.23,3.78.42,3.46-2.87-.5,9.9,11.91,20.05,25,28.89,36.71-4.33-8.68,10.56,12.56,7.84,6.45-4.55-6.45-7.65-12.64-4.25-9.8,3,3.94-.78.42.17,2.3,4.75,4.24,4.69,8.73,9.86,12.48-9.29-10.67-3.62-.65-6.46-1.71,7,7.44-1.14.35,5.12,8.24,7,7.43,15.29,16.78,22.58,25.42,7.65,12,22.3,28.17,30.22,38.06,3.5,5.68-.67,3.27,3.56,9.1,5.27,6.58-2.4-6.1,4.73,4.2l-1-.72c2.67,2.7,13.3,18.69,17.59,20l-3.9-1.83a33.81,33.81,0,0,0,4.36,4.74c-.43.46.81,3-1.87.22a54.29,54.29,0,0,0,7.18,9.67l4.2,4.65,2.07,2.35c.66.75,1.29,1.5,1.9,2.26-.85-1.68-1.45-3.05-2.33-4.77l2.7,3.06c.78.89,1.51,1.76,2.21,2.61,1.41,1.71,2.72,3.39,4,5.13,2.61,3.43,5.35,7.16,8.29,10.82,0-1.25,0-2.7-.07-4.25l1.1,3.06-.64-8.74c.53,1.81,1,1.36,1.17-.51a28.93,28.93,0,0,0-.29-7.37q1.34,11.16,2.65,27.7c-.06.55-.13.85-.2.83-.6-1-.65-1.27-.42-1.22-.24-1.49-.5-4-.79-6s-.62-3.34-1-3a4.9,4.9,0,0,0-.49,2.42,66.13,66.13,0,0,0-4.79-5.95c-1.47-1.6-2.75-2.74-3.17-2.63a28.24,28.24,0,0,0,5.25,5.78c2.16,5.21-2.72-1-5.3-2.64.94,1.14,2.12,2.79,3.12,4.12s1.79,2.33,1.85,2a67.23,67.23,0,0,1-5.84-6.21c-2.29-2.68-5-6-8.3-10.16,2.39,2.53,1.83,1.44,1,.09s-1.87-3-1-2.25c-.31.15-.94-.19-1.85-1-.46-.4-1-.92-1.58-1.52s-1-1.05-1.61-1.68c-2.29-2.52-5.16-6.14-8.25-10.33-3.4-6.81-13-14.71-20.12-24.44a96.55,96.55,0,0,1,13.88,12.61c-4.17-6.37-5.27-6.58-9.45-13-3.08-2.23-6-3.31-12.58-10.67l.47-1c-6-6.7-7.16-5.77-14-14.88-11.75-15.62-24.25-31.38-33.41-43.14l.44-1.07c-6.85-5.15-17.81-21.17-25.5-29.32-11.06-15.5-26.42-31.74-31.11-40.46-21.45-25.8-40.27-48.29-61.57-75.75l4.78,3.66c-4.71-4.2-1.84-3.7-5.81-8.34,3.44,6.22-6.46-5.68-9.84-8.5-8.72-12.83-22-27.62-31.37-37.72l.46-1C247.48,95.48,238.5,81.47,228,67.75a37.19,37.19,0,0,0-5.39-8.81c-7.1-6.33-10.06-10.24-19.4-20.36-2.76-3.48-6.22-8-9.69-12.58l-5.12-6.88-1.22-1.67-.3-.41-.16-.23-.29-.44-1.13-1.72c-.92-.06-1.58-.13-2.22-.21l-.49.06-.37,0-.44,0-1.77.1-3.55.18-7.1.31c-4.74.19-9.5.32-14.27.43-9.53.21-19.12.28-28.75.33C107.1,16,87.66,16,68,16.66l-2.83-1.19c-8.94.6-18.36.93-28,1.1-4.8.09-9.65.13-14.5.15l-4.93,0-2.5,0,0-.92,0-.42c-.05-.05.13,0,.23,0l.35,0,.69,0,3.56.17c1.33,0,2.75.17,4.12.26.69.06,1.36.09,2.06.16l2.07.26c2.76.26,5.5.88,8.18,1.39,1.32.33,2.63.71,3.92,1.07l1.94.53c.64.2,1.24.45,1.86.66l3.66,1.34.9.33.86.39,1.7.78L54.7,24.3a16,16,0,0,1,1.6.81l1.54.84c-1.32,0-2.57,0-3.9.12,2.3,1.42,4.7,3,7.11,4.34s4.48,2.91,6.41,4c1,.53,1.82,1.06,2.55,1.5a16.7,16.7,0,0,0,1.88,1c1,.43,1.5.38,1.2-.33,2,1.81,4.36,3.67,6.6,5.77l3.51,3.09c1.17,1,2.38,2,3.44,3.12C91,52.81,95,56.78,96.48,59.86c1.71,2,3.15,3.63,4.45,5s2.46,2.41,3.53,3.48c2.18,2.13,4.28,4,7.21,7.36l2,2.6,1.79,2.43,3.29,4.46c2.1,2.81,4,5.33,5.9,7.78s3.75,4.8,5.74,7.29c2.48,3.1,5.11,6.36,8.06,10,.05,2,.13,5.74.21,9.82l.05-2.44,0-3.41c-.23-1.83-.57-2.71-.85-2.14a6.29,6.29,0,0,0-.38,2c-.05.52-.09,1.14-.13,1.87l-.07,1.85c.61,7.33-.4,27,2,19.69-1.29,21,1.41,49-.38,69.49.66-1.75.81,3.42,1.27,5.59.13,18.44-1.12,37.84.09,52.56-.32,2.94-1.16-4.67-1.19,2.83.28,4.45.87.11,1.27,5.57,1.4,29.88-.95,60.51-.49,87.69q.26,9.06.49,18.2t.37,18.26c.27,12.29.25,24.8-.4,37.23-1.28,24.87-4.8,49.64-12.06,72.72l-.3-.68c-1.54,8-5.43,16.83-9.89,24.88s-9.41,15.34-12.41,21.46c-.71.71-1.65,1.8-2.68,3s-2.18,2.4-3.2,3.45c-2.09,2.07-3.62,3.45-3,2a53.72,53.72,0,0,1-3.67,4.08c-1.45,1.35-3,2.83-4.74,4.2a82.16,82.16,0,0,1-12,8c-8.83,5.06-19,8.74-28.18,11.75a22.52,22.52,0,0,0,4.59-1.48c-1,.26-2,.48-3.05.67l-3,.63-6,1.07c-2,.27-3.94.6-5.9.85l-5.37.59-2.37.21-.82,0c-.23,0-.67.13-.54-.14a14.65,14.65,0,0,0-.06-2.21c.66.05,1.37.14,2.18.27a10.12,10.12,0,0,0-2.69.85,4.93,4.93,0,0,0,2.35.11,12.64,12.64,0,0,0,1.28-.22l.15,0,.37,0,.76-.07,1.49-.13c3.94-.34,7.47-.5,9.49.68,4.2,0,3-1.18.4-1.11,41.66.91,86.1-.59,129.42-1.13,31.06,1.41,1.9,4,26.4,2.21,2,.45,1.45-.9,1.79-.41,9.48-.66,14.76,2.62,21.34,1.39-2.71-1.44,4.38-.81,4.58-1.69,9.49.47,15.19,1,20.39,1.34,2.6.15,5.07.24,7.83.23l1.05,0,.66,0c.37,0,.74,0,1.13-.08.76-.06,1.55-.16,2.33-.3a3.23,3.23,0,0,1,0,.76l1.6-.4c-.42-1.05-.6-1.25-.88-1.2l-2.17.13-2.19,0h-.37l-.64,0-1.27-.11-2.52-.21c-1.68-.16-3.34-.41-5-.61-6.58-.92-12.8-2.32-18.43-3.63a90.66,90.66,0,0,1-17.69-9.28,95.83,95.83,0,0,1-15.1-12.82,121.84,121.84,0,0,1-21.58-31.86,192.38,192.38,0,0,1-12.52-35.16A293.12,293.12,0,0,1,153,461.49c-1.53-12-2.43-24-2.92-36s-.49-23.94-.5-35.64c.25-23.53.56-47,.92-70.66.66-27.92,1.17-55.67,1.65-83.42.67-37.62,1.33-75.23,2-113.07l34,43.4q9.38,12,18.8,24.12,17.3,22.26,34.63,45c12.15,18.71,13.22,20,28.92,38.67-.86-.57-1.87-1.73-1.1-.26,2.05,0,10.73,13.42,13.4,14.28,21.41,27.76,41.7,52.88,64,81.24-3.66-4.38-6.48-5.8-2.21-.54l5.2,4.93.35,1.19c3,3.49,6.81,7,4.27,2.88,28.53,35.19,55.9,70.82,83,106.35L478,537.06l20.39,26.38,10.25,13.12,9.06,11.49a4.78,4.78,0,0,0,.23.42l.62.09.18,0,.9,0,2.14,0,8.86.06h8.23l1.61-.07-.1-1.57v-.18a.94.94,0,0,1,0-.14v-.56c0-.76,0-1.51,0-2.26l0-4.47c0-5.93-.07-11.67-.11-17,1.18-28.49,2.26-55.8,3.06-83,.4-13.61.73-27.21,1-40.93.09-6.86.18-13.74.27-20.68,0-3.47.05-6.95.08-10.44,0-1.57,0-3.15,0-4.73l0-2.07-1.34-.78-.67-.39-1.59-1-6.9-4.11L520,386a36.79,36.79,0,0,1,7,1.94c2.43.86,5.52,2.08,9.35,3.81,1.92.87,4,1.87,6.32,3l3.26,1.64c1,.5,2.06,1.05,3.19,1.65C549.19,399.17,549.26,400.61,549.31,402.15Z" fill="#202020"/><path d="M526.52,400.88a9.09,9.09,0,0,0-.29,1.13c-.09.53-.18,1.11-.28,1.7-.17,1.17-.34,2.33-.52,3.13-.36,1.62-.74,1.66-1.28-1.82a8.54,8.54,0,0,0,1.2-2.69C525.76,401.22,526.16,400.48,526.52,400.88Z" fill="#202020"/><path d="M417,289.59c-.36-.06-1.61-2.56-1.92-3.17,1.67,2,3.72,3.47,4.67,5.36C418,289.76,418,290.31,417,289.59Z" fill="#202020"/><path d="M383.87,247.08c1.07.18,8.69,8.85,13,14.13Z" fill="#202020"/><path d="M355,205.88c-2.22-3.78-1.21-3,2.41,1.54C357.4,208,356.05,206.6,355,205.88Z" fill="#202020"/><path d="M351.51,204.12a34.63,34.63,0,0,1-4.49-7C346.63,197.64,353.33,204.45,351.51,204.12Z" fill="#202020"/><path d="M285.46,117.43c-1.68-2-5.68-6.09-6.56-8.5C280.16,111.42,287.55,118.34,285.46,117.43Z" fill="#202020"/><path d="M253.12,78.43a23.6,23.6,0,0,0-2.63-3.28c-1.61-2.56.78-.41,2.41,1.54Z" fill="#202020"/><path d="M70.75,566c1.4-1,2.74-2.06,4.09-3.11-.06.35-.14.68-.21,1C73.33,564.61,72.07,565.36,70.75,566Z" fill="#202020"/><path d="M203.42,554.05c-3.79-3.52-1.85-3.14-2.33-3.83C204.18,553.65,199.24,549.54,203.42,554.05Z" fill="#202020"/><polygon points="162.3 348.53 162.29 350.19 160.81 349.61 162.3 348.53" fill="#202020"/><path d="M427.69,11.65c-.17-1.54-.49-1.12-.68-.72s-.25.68.11-1.34A1.51,1.51,0,0,1,427.69,11.65Z" fill="#202020"/><path d="M438.19,11.47c12.8-3.82,29.67,0,43.7-2.4,1.64-.16-.43,2.09,3.28,1.59,13.6-3,35-1.2,51.58,1.09l-1,.59c3.16.42,7-1.53,10.35-1.26,0,.4-1.07.56-.29,1.1.84-1.18,6-.55,7.46-1.43,1.32.46,1.19,1.4,2.9,1.92l1.91-1.35c5.32-3.2,12.92.23,20.17-1.43-.35.31-1.06.56-.49.86C589.41,8.81,604,9.17,617,8.46c-.52.47-1,1.34-.24,1.87.64-1.41,4.67-1.77,8.16-2.05,1.57,1.46,6-1.33,10.08-.53l-.35.33c3-1.53,4.49.88,7-1l1.92,1.14c1.33-2,4.38,1.07,6.88,0l-.08-.43c2.36-.5,3.58.53,5.77.19l.21.24a28.56,28.56,0,0,1,3.43-.16l2.85,0c1.54,0,2.39-.09,2.66-.89.79.64-.75.78-2,1s-2.33.51-1.1,1.45c2.81-.28,5.83-.5,9-.67.22,3.61.38,7.66.48,11.86l0,1.58v.59s-.11,0-.16,0l-.72,0-2.9.1c-2,0-3.9.16-5.83.28-1,.07-2,.1-2.88.18l-2.64.27c-.88.1-1.76.17-2.64.28l-2.62.38c-1.75.22-3.48.55-5.21.89s-3.43.74-5.13,1.14c-2-.2-3.23,0-3.82-.46-1.55.72-6,2.22-7.15,3.53.52-.24-1.3-.36-2.16-.1-3.13.57-2.38,2.94-5.73,3.66,1-.94,1.23-1.6.56-1.95a19.82,19.82,0,0,1-3.89,3.13c-1.48.94-3,2-4.34,3,.31-.5.94-1,.57-1.41a12,12,0,0,1-2,1.89,17.91,17.91,0,0,1-2.15,1.31,12.68,12.68,0,0,0-3.87,2.91l.43-1.46c-2.47,1.12-2.44,1.81-2.35,2.4s.3,1.18-1.64,2.38c.63-.94.12-1,0-1.38a32.83,32.83,0,0,1-4.82,6.07A50.16,50.16,0,0,0,593.66,56a.34.34,0,0,0-.16-.39c-2.84,3.56-6.23,7-8.4,11.63-1.36,1.29-1.56-1.77-3.92,2.54.81.41-.07,2.29-.76,3.88s-1.1,2.94.49,2.2c-2.33,3.38-5.79,9-6.31,11.77.1-2-2.9.93-1.64-2.31l-2.09,2c-.53-.67,1.33-2.39.12-2-.31.83-.84,2.49-1.35,4.11a20.92,20.92,0,0,1-1.46,3.89c-.09,3.46.83,6.93-.51,11.91.06-2.54-2.38.69-2.17-1,.18,1.34.39,2.67.61,4s.43,2.64.69,4c-.38,1.67-1.51,0-1.72,2.49.51,0,.52,1.12.72,1.95-.39.57-1.28,7-3.2,7.34-.88.58.26-2.83-.81-1.11-.66,3.13-.12,3.39-.72,6.52h-.25c-.71,2-.4,6.24,1,4.18.33-1.42-1.18.34-.26-1.68.77,1.65.38,5.31-.11,8.44-.11-1.11-.61-1.06-1.05-1.58.72,4.45.5,9,.52,13.74.85.18-1.35-2-.8-2.59-2,5.92.25,12.68-1.9,17.57-.09-.84,1.26-.34,1-.31-.36,2.92-1.58,2.7-1.26,4.64-.76.14.08,2.43.17,4.4.49,1.05-.39.5-.36-1.23a78.69,78.69,0,0,1,.53,8.74,61.32,61.32,0,0,1-.63,11.4c.49-.11,1.73,3.93,1.67,5.39l-1.14-.59c-.7,1.33.07,4.91-.91,5.15.69,1.57.39-1.44.08-4.32s-.63-5.62-.13-3.5c-1,1.09,1.76,5.91.22,5,0,3,1.31,5.8.25,8.62.18-.82-1.59-2.39-1.51,0,.23,4.21.55,1.2.95,4.61l.48,2.15c.56.08.52,1.05.5,1.79s0,1.24.59.46c-.92.51.5,6.13-1.34,5.69l-1.45-.6c.09,1.83,1.5,3,2.13,4.43-.14.24-.44.72-.67.63,2.22.3-.24,4.35,1.46,6.52-.82,3.82-.18,9.71-1.59,11.51.64,2.94,1.42,5.63.9,9-.2-.67-.26-1.59-.73-1.78-.68,2.1-.1,2.62.24,4.54-.33-.43-1.35,4.2-2.17,6.53.64,2.93,1.85,1.94,2.58,2.24-2.23,2.65,1.32,8.25-.71,11.58-.29-1-1-4.27-1.61-1.85-2.22,2.65,1.56,5.4.46,9.69l1.83-1c-1.15,1.91,1,6.35-.86,5.89.64,1.45-.66,5.07,1.12,4.61-1.58,7.05.71,17.2-2.52,21.51.29,1,0,3.54.87,3,1-1.67-.68-2.36,0-3,0,.91.52,1.12.77,1.21-.44,2.2-.58,3.93-2,1.83-1.15,4.88,3,5.08,2.2,11.29-.73-.29-1,.18-.92,2l1.22,3.47c-.33,4-1.69,2.27-2.94,2.35.09,1.08.12,2.28.23,3.33a8.08,8.08,0,0,0,.27,1.43,3.21,3.21,0,0,0,.22.57,3.07,3.07,0,0,0,.29.63c-.53,1.22-1.07,2.3-1.6,3.26,1.16-2.21.72,2.58,1,4.15l-.29-1.54c-.52.29-.24,3.7-.1,5.55.77.29,1.12-3.14,1.36-5.09.53,1.89.37,4.37,1,7.15-.91-1.3-1,1.89-1,4.56-.88-.15-1.69-.29-2.33-.42-3-.77-2.48.7-3.42.5-.46-.72-4.92-.92-3-1.51.85-.06,2.59,1.05,3.88.7a27.05,27.05,0,0,1-2.51-1.29,6,6,0,0,0-3.33-.46c-1.32.09-1,.75-1,1.19s-.53.61-3.53-.28c1.54-.05,1.75-.51,2.78-.79l-5.06-1.48-.35,1.07c-.67-.39-.18-.41-.46-.61-.62.49-2,.36-3.32.25a12.43,12.43,0,0,0-1.89-.07,3.25,3.25,0,0,0-.75.13,1.79,1.79,0,0,0-.79.28,23.31,23.31,0,0,1-4.26-1.07,39.46,39.46,0,0,0-3.85-1.18h.56a18.15,18.15,0,0,0-5-1.09,19,19,0,0,0-.77-4.21h.24a31.79,31.79,0,0,0-.71-8.12,5.68,5.68,0,0,1,.42-1.41,2.46,2.46,0,0,1,.57-.55,5.43,5.43,0,0,1,1.26-.55c.77-.28,1.26-.6.57-2.21,0-3-2-4.65-2.74-3.46.77-5.31-1-11.35.72-16.28-.45-.76-.74-.28-1-1.86.46-7.8-1.27-16.48.94-22.69.46,2.27,1.11.16,1.75.11-1-1.87,1-2.24-.67-2.92-1,.19-1.49,0-1.9,2.2-.53-4.66-.5-11.74.44-14.32-.47,1.29-.77.29-1.07-.73,1.6.34,1.86-3.09,1.3-5.69l-1-.37,1-1.69c-.31-1-2-1.11-1.1-3.68a1.68,1.68,0,0,0,1-.76c-.79-2.69-2.13-6.48-1.29-9.39l1.43-2.39c-.15-1.24-1-3.34-1.42-1.15.88-5,1-8.18,2.23-9.76-3-8.57-3-21-2.81-31l.74.29c.7-2.71-1.28-1.43-.75-3.33.68.89,1.54-2.07,2.37.09.82-3.87-1.19-5-1.47-7.52-1-.4.57,2-.64,1.51-.33-.43.86-5.28-.59-5.9.59-.94,1.65-.18,2.23.35l-.66-2.35c1.75-2.82,2.91,6.56,5.06,3.61l-.19-2.16c1.56-2,1.61,5.74,2.24.34-.67-2.37-2.75-4.41-3.43-2.33-.32-4.88-3.42-2.31-3.24-7.53.87-1.41.15,4.18,1.36,3.19,1.21-2.45-.6-4.94-.18-7.12-.56,2.42-2,.36-2.28-1.2.69-2.64,1.38,1.72,1.53-2-.84-.62-1.49-4.05-2.06-1.08-1.9-1.34.51-3.89-1-5.9,1.32-1.24,3.14,3.81,3.76-.31-1.28.66-1.84-5-3.72-2.83.35-1.61,1.35-1.81,2.17-.65.75-2.33-2.5-5.49,0-6.33l-1.35-.74c.41-.73.69-1.77,1.35-3,0-2-2.1-6.4-.11-6.32-.23-.64-.45-5.24-1.71-3.38-.65,2.9,1.21,3.22-.56,4.91,1.4-2.09-.43-4.09-1.06-5.69l.75-.32c-.36-1-.37-3.22-1.25-3.75.5.7,1,.28,1.11-.52l-1.25-.92c-.93-3.89,2-1.11,1.28-4.93l1.18,2.84c-.26-.62.72-2,.16-3.86-1.14-.61-2.55-1.81-3.45-2.33-.71-2.1,1.09-1.11-.25-3.09l1.61,2.62c.39.39,1.54-2.08,1.15-5-.61-1.81-2.52-4.44-2.72-1.47-.19-1.44.14-3.54,1.09-2.51-.85-3.2-1.08.59-2.15-2.11.53-1.25,1-5,1.59-7.31.76.87,1.53,1.75,2.27,2.64-.09-.66-.2-1.32-.32-2,1.88,2.3.85-1.48,2.6-.31a10.06,10.06,0,0,0-1.45-4.16c-1.61,4.35-4.11-3.73-6.06-2.13-1.72-5.07,4.55-4.49-.14-9.14-.34,1-2.6-1.11-1.17,2-.59-3.27-2.68-1.63-2.82-5.6,1.67,2.54,1.32-3.6,3.72.09-.76-.08.06,2.42.43,3,.47-1.55,2.23-.28,1.34-3.63-.76-2-1.61-4.73-2.61-4-1.16.44,1,3-.57,2.1-1.6-3.83,0-5.08-2.66-6,1,2.4-.1,3.43-.93,3.64-.45-.91-.92-1.8-1.41-2.68l1,.29c-1-4.73-1.86-.87-3.2-5.26.28-.86.54-1.73.79-2.6,1.77.51,1.71,6.54,3.63,5-.93-2.91-2.36-3.46-2.85-6.32.42.52.79,1.31,1.21,1.82-.16-.52.38-1.31.55-2.4s-.05-2.51-1.75-4.15c-1.52-1.78-1-.21-1.81.09-2.23-4.3-3.68-5.17-5.22-7.8,1.81-.26-2.48-4.82.69-2.71-.07,1,.79,2.88,1.82,4.77s2.34,3.68,3.46,4.12c1.12-2.45,1.29,3.62,3.55,3.84-1.49-3.68.38-4.3,1.32-5.43a7.66,7.66,0,0,0-1.82-2.35c-1.31.09-.68,1.41-1.79,2a23.86,23.86,0,0,0-2.95-5.57,14.64,14.64,0,0,0-3.49-3.51c-.22-1.55,1.05-1.79,2.05-.34-2.93-4.39-5.93-9.07-8.8-13.14.51,3.68-3.9-3.88-3.76-1.14,1.37,2.27,1.64,4.84.06,4.34-.91-1.29.7-.52.61-1.29-1.08-.43-1.23-1.32-1.48-2.14a2.05,2.05,0,0,0-1.89-1.73c3.56,2.93,2.4-1,4.13-1.41-3-1.93.94-.66-1.44-3.16l-9.85-6.16a18.09,18.09,0,0,0-6.61-5.07l-2-1c-.66-.29-1.32-.54-2-.79l-1.8-.74c-.58-.21-1.11-.41-1.6-.62-1.72-1.6.39-2.68-1.81-3.88-2.73-1,1.31,2.54-2.39.26l.5-.18a7.24,7.24,0,0,1-1.69-.6c-.76-.3-1.67-.68-2.61-1-1.86-.65-3.85-.84-4.75.2l1.75-1.52a4.37,4.37,0,0,0-2.26-.11c.12-.6-.69-1.37.7-1.46a6.64,6.64,0,0,0-4.06-1.26c-1.47-.07-3,.13-4.45-.08l1.68,1.41a37.19,37.19,0,0,1-6.58-.58l-.76-.13c-.25,0-.6-.06-.89-.1l-1.86-.17a31.14,31.14,0,0,0-4.07-.12l.83-1.09-3.71.6c1.07-.66.54-1.19-.5-1.28h-.12V22a2.21,2.21,0,0,0-.07-.46,1.26,1.26,0,0,0-.34-.67l.35.7.17.33L425,22l0,.08.17,0c2.53-.61,4.71-1.27,6.55-1.86.71.37.14.67-.67,1s-1.83.77-1.48,1.31,1.78.75,3.29.74a10.88,10.88,0,0,0,2.08-.2,2.2,2.2,0,0,0,1.2-.53c-1.72-.32-1.79,0-3.29.28-.07-.79.56-1.12,1.29-1.38l1.16-.38a4.77,4.77,0,0,0,1.23-.48,11,11,0,0,1-1.43-.27c-.36-.07-.66-.08-.78.16a5.33,5.33,0,0,1,1.19-.38A12.07,12.07,0,0,1,437,20a28.75,28.75,0,0,1,3.83.26c-2.12.29,1,1.11.14,1.43.22-.65,1.06-1,2.32-1a10.12,10.12,0,0,1,2.16.18c.79.16,1.66.39,2.57.67,1.16,1,2.91,1.23,4.94,1.36a25.53,25.53,0,0,1,3.17.34,10.79,10.79,0,0,1,3.17.93,23.43,23.43,0,0,1-3.46.76,25.16,25.16,0,0,1-3.82.12,12.35,12.35,0,0,0,2.63,1.11,9.07,9.07,0,0,1,2.58,1.18c.78-.27,1.52-.68,2.52-.94a7.8,7.8,0,0,1,4.05.06l-.22,1c3.17.83,3.84-.49,7.45,1.72a102.17,102.17,0,0,1,15.83,12.31l-.54.87c1.8.28,3.8,1.89,5.6,3.85.94.95,1.8,2,2.66,3a26.91,26.91,0,0,0,2.49,2.51c1.77,3,4,6,5.95,8.78a36.77,36.77,0,0,1,2.37,4,9.07,9.07,0,0,1,1,3.34,118.61,118.61,0,0,1,8,15.57,102.63,102.63,0,0,1,5.5,16.9c-.65-.55-1.3-1.1-2-1.64,1.65,1.87-.44,1.62.32,3.67.52-2.73,2.24,2.54,3.45,3.86.17,5.67,2.71,12.39,4.49,17.12l-1,.35c2.66,4.63,1.79,10.79,2.1,16.94a5.79,5.79,0,0,0-.91,3.76c1.92,3.19,1.95,4.94,3.3,9.78a75.4,75.4,0,0,1-.42,13.07c2.76,13.39,1.09,27.22,2.17,41l-1.21,1a85.73,85.73,0,0,1,1,10.41c.15,3.62.12,7.29.06,10.91-.12,7.23-.39,14.22.24,19.95l-2-1.12c-.64,3.59.5,8.19,2,7.28-.64,3.6,1,9-.72,11.26-.39,3.68.92,4.51,1.19,7.56a85,85,0,0,0-.28,17.05l.14-1.72c-.45-.77-1.32-.84-1.45.89.55,2.59-.58,9.53,1.86,6.95-1.43,7.41,1.08,17.3-.84,24.5.67-.61.79,1.21,1.24,2,0,6.5-1.37,13.34-.26,18.53-.34,1-1.13-1.65-1.21,1a1.22,1.22,0,0,0,.25.69,1.66,1.66,0,0,0,.33,0,1,1,0,0,1,.66.22,2,2,0,0,1,.32,1.4,4.1,4.1,0,0,1,.91.46l.56.33.08.05.34.09.7.18,1.41.36,2.8.7a2.4,2.4,0,0,1,.7.21l.4.15a5.89,5.89,0,0,0,1.63.35c.4-.06.76-.1,1.1-.13-.2-1.3-.32-2.29-.38-3.21l0-.17v-5c0-2,0-3.91,0-5.86.08-7.79.25-15.48.23-22.89l.49.2c-1.8-5.48,2.06-12.8-.7-17.19.48-1.28.27-4.93,1.2-4-1.27-4.36,1.38-12.17-.22-18.47a3.41,3.41,0,0,0,.25,1.58c1.14-6.34-.27-12,.78-18.65.2.68.34,1.91.83,2.12,1-2.58-2-6.15.38-7.56,0-1.48-1.17-1.06-1.11-.15a217.33,217.33,0,0,0,.23-22.59q-.1-2.87-.21-5.76l-.12-2.88-.15-2.81c-.23-3.82-.45-7.7-.57-11.56,1.48-11.07,3.94-.64,2.3-9.4.46-.7-.89-.53-.4-.64-.6-3.41,2.74-5.2,1.58-7.58-1.47.92-.75-1.58-1.62-1.69,1.21-6.75,2.59-8,1.83-13.43l.73.45c-1.74-6.42.08-13.58-1.76-19.17,1.81-17.4,4.59-34.5,9.44-51.24,1.2-4.18,2.59-8.33,4.08-12.45s3.19-8.19,5.05-12.21a129.9,129.9,0,0,1,13.67-23.16,118,118,0,0,1,8.88-10.22c1.54-1.66,3.23-3.18,4.87-4.75s3.38-3,5.18-4.42A102.39,102.39,0,0,1,621.5,20.82a108.3,108.3,0,0,1,26.06-7.46l3.35-.45c1.11-.15,2.23-.29,3.35-.36l3.35-.28.84-.07h.67l.84,0a1.58,1.58,0,0,1,.28.08l.15.05.08,0h0l0,.23.11,1.85a11.5,11.5,0,0,0,1.22,2.39,1.9,1.9,0,0,1,.44,1,5.07,5.07,0,0,0-2.06.52c.15-.32.32-.4.27-.7a1.83,1.83,0,0,1-.43.74.53.53,0,0,1-.21.11l-.1,0h-.21c-1.56,0-3.17.05-3.58.83-12.36-.31-23.75.14-36.46.15,2-.17,3-1.51.63-1.41l-2.5,1.05-.41-.46c-1.63.25-3.41,1.05-1.73,1.58-31.94,1.42-63.37-1.87-94.65-1.47-7.43-.68-18-.05-26.08.28-23.93-2.19-45.49-4-69.8-2.42C425,16.68,428.15,12.44,438.19,11.47Z" fill="#202020"/><path d="M427.85,15.35a17.49,17.49,0,0,0-1.08,2.21c-.35.7-.74,1.17-1.29.49C426.25,17.23,427.12,15.5,427.85,15.35Z" fill="#202020"/><path d="M483.57,50.37c.25-.12.44,1,.48,1.2-.61-.6-1.67-.67-1.84-1.44C482.86,50.69,483,50.33,483.57,50.37Z" fill="#202020"/><path d="M494.12,64.69c-.39.08-1.22-.6-2.1-1.52a30.47,30.47,0,0,1-2.59-2.91l2.37,2.16C492.59,63.15,493.34,63.93,494.12,64.69Z" fill="#202020"/><path d="M499.22,80.73c0,1.57-.46,1.32-1.22-.43C498.3,80,498.75,80.51,499.22,80.73Z" fill="#202020"/><path d="M501.21,81.16a4.3,4.3,0,0,1,.3,2.86C502.09,83.71,499.89,81.22,501.21,81.16Z" fill="#202020"/><path d="M509.65,116.81c.24.85,1.18,2.64.53,3.6C510.59,119.38,508.47,116.34,509.65,116.81Z" fill="#202020"/><path d="M513.48,133.67a3,3,0,0,0,.2,1.43c-.21,1.06-.87.05-1-.81Z" fill="#202020"/><polygon points="557.59 283.69 557.92 285.63 557.21 285.33 557.59 283.69" fill="#202020"/><path d="M562.6,142.27c-.16-1.94.88-1.19,1-1.48C563.45,142.48,562.84,140,562.6,142.27Z" fill="#202020"/><polygon points="583.38 70.19 583.09 70.68 581.93 69.73 583.38 70.19" fill="#202020"/></g></g></svg>